<?xml version="1.0" encoding="utf-8"?>
<svg viewBox="0 0 500 500" xmlns="http://www.w3.org/2000/svg">
  <g transform="matrix(8.572345, 0, 0, 8.557947, 14.137338, -79.287614)" style="">
    <path d="M 21.48 52 C 18.18 52 15.48 54.7 15.48 58 C 15.48 61.3 18.18 64 21.48 64 C 24.78 64 27.48 61.3 27.48 58 C 27.48 54.7 24.78 52 21.48 52 Z M 21.48 60 C 20.38 60 19.48 59.1 19.48 58 C 19.48 56.9 20.38 56 21.48 56 C 22.58 56 23.48 56.9 23.48 58 C 23.48 59.1 22.58 60 21.48 60 Z"/>
    <path d="M 40.71 52 C 37.41 52 34.71 54.7 34.71 58 C 34.71 61.3 37.41 64 40.71 64 C 44.01 64 46.71 61.3 46.71 58 C 46.71 54.7 44.01 52 40.71 52 Z M 40.71 60 C 39.61 60 38.71 59.1 38.71 58 C 38.71 56.9 39.61 56 40.71 56 C 41.81 56 42.71 56.9 42.71 58 C 42.71 59.1 41.81 60 40.71 60 Z"/>
    <path d="M 19 42 L 16.6 38.5 C 14.5 39.4 13 41.5 13 44 C 13 47.3 15.7 50 19 50 L 47 50 L 47 46 L 19 46 C 17.9 46 17 45.1 17 44 C 17 42.9 17.9 42 19 42 Z" style="stroke-linecap: round; stroke-miterlimit: 19.35; stroke-linejoin: round; stroke-width: 1.26284px;"/>
    <path d="M 17.5 44 C 17.5 44.447 17.641 44.759 17.941 45.059 C 18.241 45.359 18.553 45.522 19 45.5 L 49.5 45.5 L 49.5 50.5 L 19 50.5 C 17.247 50.478 15.559 49.741 14.409 48.591 C 13.259 47.441 12.5 45.753 12.5 44 C 12.5 42.672 12.922 41.378 13.597 40.371 C 14.274 39.363 15.291 38.528 16.403 38.04 L 16.778 37.876 L 19.982 42.548 L 19 42.5 C 18.553 42.478 18.241 42.641 17.941 42.941 C 17.641 43.241 17.5 43.553 17.5 44 Z M 17.234 42.234 C 17.659 41.809 17.81 41.8 18.166 41.669 L 16.426 39.131 C 15.611 39.546 15.026 40.037 14.428 40.929 C 13.828 41.822 13.5 42.828 13.5 44 C 13.5 45.547 14.091 46.859 15.116 47.884 C 16.141 48.909 17.453 49.522 19 49.5 L 48.5 49.5 L 48.5 46.5 L 19 46.5 C 18.347 46.478 17.659 46.191 17.234 45.766 C 16.809 45.341 16.5 44.653 16.5 44 C 16.5 43.347 16.809 42.659 17.234 42.234 Z" style="fill: none;"/>
  </g>
  <path d="M 362.444 282.396 C 362.444 282.396 368.609 282.363 370.65 282.054 C 372.896 281.759 374.459 281.166 376.581 280.564 C 380.855 279.426 384.402 277.903 388.106 275.636 C 395.655 271.353 401.125 265.743 405.203 257.992 L 462.514 116.911 C 464.774 113.533 464.408 109.888 464.332 106.734 C 464.257 103.591 465.048 100.744 462.994 97.739 L 462.932 97.651 L 462.884 97.553 C 461.234 94.277 459.209 91.896 456.473 90.205 C 453.732 88.512 450.948 87.704 446.898 88.03 L 118.698 81.94 L 103.127 38.505 L 98.605 33.733 L 91.963 31.512 L 39.741 31 L 39.6 63.718 L 74.708 64.262 L 155.603 251.857 L 136.631 282.845 L 186.784 282.304 L 366.814 282.512 L 362.444 282.396 M 137.804 120.652 L 395.302 121 L 398.358 121 L 401.416 121 L 404.476 121 L 407.537 121 L 410.597 121 L 416.366 121 L 375.392 231.265 L 371.532 237.357 L 365.401 241.518 L 359.049 244.472 L 354.555 244.36 L 197.317 243.935 L 196.175 243.935 L 195.033 243.935 L 193.891 243.935 L 192.749 243.935 L 191.607 243.935 L 190.465 243.935 L 189.976 242.905 L 189.487 241.874 L 188.998 240.844 L 188.509 239.814 L 188.02 238.784 L 187.531 237.754 L 142.747 132.059 L 137.804 120.652" style="stroke-linejoin: round; stroke-width: 0px; stroke-linecap: round;"/>
  <path style="stroke: rgb(0, 0, 0);" d="M 412.188 315.096 C 425.44 315.103 433.301 328.609 426.669 340.063 C 423.594 345.372 418.331 347.614 412.188 347.618 C 398.936 345.094 393.593 330.43 402.409 320.233 C 404.992 317.244 408.305 315.835 412.188 315.096 Z"/>
  <path style="stroke: rgb(0, 0, 0);" d="M 41.893 31.635 C 55.344 31.641 63.321 45.346 56.589 56.971 C 53.469 62.36 46.131 62.638 39.898 62.642 C 26.449 60.082 23.023 46.201 31.968 35.853 C 34.591 32.819 37.951 32.383 41.893 31.635 Z"/>
</svg>