<svg viewBox="0 0 500 500" xmlns="http://www.w3.org/2000/svg" version="1.1" xmlns:xlink="http://www.w3.org/1999/xlink" transform="matrix(-1,0,0,1,0,0)"><path d="M162.421 443.365c-10.4 0-18.607-5.475-23.175-13.381-4.567-7.905-5.285-17.791-.005-26.768 4.786-8.396 13.518-13.385 23.18-13.385 10.412 0 18.618 5.474 23.183 13.38 4.565 7.905 5.276 17.793-.002 26.772-4.762 8.397-13.491 13.382-23.181 13.382zm-79.285 2c10.979 30.1 36.023 48.994 63.832 54.179 27.808 5.184 58.424-3.544 79.521-28.066 6.746-7.878 11.763-16.591 15.216-26.113h198.39c10.966-.084 20.128-6.091 24.914-14.38 4.786-8.29 5.408-19.228-.004-28.77-5.124-8.76-14.719-14.317-24.91-14.384H241.704c-10.966-30.085-36.003-48.98-63.808-54.168-27.805-5.188-58.42 3.533-79.518 28.055-6.743 7.877-11.786 16.59-15.243 26.113H51.351c-10.954.084-20.116 6.09-24.906 14.379-4.789 8.29-5.417 19.229-.005 28.772 5.15 8.762 14.748 14.316 24.911 14.383zm245.887-168.604c-10.399 0-18.606-5.475-23.174-13.38-4.567-7.905-5.286-17.791-.006-26.769 4.787-8.398 13.517-13.385 23.18-13.385 10.413 0 18.62 5.475 23.185 13.381 4.564 7.905 5.274 17.793-.007 26.771-4.757 8.396-13.486 13.382-23.178 13.382zm-79.283 2c10.979 30.099 36.024 48.994 63.832 54.178 27.808 5.185 58.423-3.544 79.519-28.066 6.746-7.878 11.762-16.59 15.218-26.112h31.786c10.966-.084 20.128-6.09 24.914-14.38 4.786-8.289 5.408-19.227-.004-28.77-5.124-8.762-14.72-14.317-24.91-14.384h-31.787c-10.966-30.085-36.004-48.979-63.808-54.168-27.805-5.188-58.42 3.533-79.517 28.055-6.744 7.876-11.787 16.589-15.244 26.113H51.351c-10.954.084-20.116 6.09-24.906 14.38-4.789 8.29-5.417 19.229-.005 28.771 5.15 8.761 14.748 14.316 24.911 14.383zm-87.319-168.605c-10.4 0-18.607-5.474-23.175-13.379-4.567-7.905-5.286-17.79-.006-26.767 4.786-8.399 13.518-13.385 23.181-13.385 10.412 0 18.618 5.474 23.183 13.38 4.565 7.905 5.276 17.793-.002 26.772-4.762 8.396-13.491 13.379-23.181 13.379zm-79.285 2c10.979 30.1 36.023 48.995 63.832 54.18 27.808 5.185 58.424-3.544 79.521-28.066 6.746-7.878 11.763-16.589 15.216-26.114h198.39c10.966-.084 20.128-6.09 24.914-14.379 4.786-8.289 5.408-19.226-.004-28.768-5.124-8.763-14.72-14.317-24.91-14.384H241.704C230.738 24.54 205.701 5.646 177.896.458c-27.805-5.188-58.42 3.533-79.518 28.054-6.742 7.879-11.786 16.589-15.243 26.113H51.351c-10.954.084-20.116 6.09-24.906 14.379-4.789 8.29-5.417 19.229-.005 28.772 5.15 8.761 14.748 14.313 24.911 14.38z" style="transform-origin:50% 50%"></path></svg>