<?xml version="1.0" encoding="utf-8"?>
<svg viewBox="0 0 500 500" xmlns="http://www.w3.org/2000/svg">
  <g transform="matrix(4.293321, 0, 0, 4.293321, -385.922607, -340.735107)" style="">
    <g>
      <g>
        <path fill="#000000" d="M 140.266 132.231 L 137 135.398 L 126.6 124.998 L 126.6 178.898 L 117 178.898 L 117 124.998 L 106.6 135.398 L 103.245 131.943 L 99.9 127.698 L 121.898 106.701 L 121.9 106.703 L 136.72 121.414 C 143.903 128.692 141.596 126.627 143.284 128.493 C 142.836 129.346 141.794 130.704 140.266 132.231 Z M 149.5 110.379 L 149.5 100.779 L 189.5 100.779 L 189.5 110.379 L 149.5 110.379 Z M 166.5 133.579 L 166.5 124.379 L 189.5 124.379 L 189.5 133.579 L 166.5 133.579 Z M 149.5 156.179 L 149.5 146.579 L 189.5 146.579 L 189.5 156.179 L 149.5 156.179 Z M 166.5 179.279 L 166.5 170.079 L 189.5 170.079 L 189.5 179.279 L 166.5 179.279 Z"/>
      </g>
    </g>
  </g>
</svg>