<?xml version="1.0" encoding="utf-8"?>
<svg viewBox="0 0 500 500" xmlns="http://www.w3.org/2000/svg">
  <path d="M 106.142 249.411 L 388.914 249.411 C 389.751 249.411 390.572 249.484 391.369 249.624 C 395.821 249.753 399.619 251.783 401.114 255.305 L 421.571 303.498 C 423.855 308.879 419.905 315.702 412.75 318.739 L 412.535 318.83 C 408.487 320.549 404.28 320.688 400.976 319.51 L 387.063 319.51 L 352.866 480.394 C 352.576 481.757 351.602 482.883 350.145 483.714 C 348.58 486.976 346.156 489.069 343.438 489.069 L 150.95 489.069 C 148.134 489.069 145.637 486.827 144.079 483.369 C 143.013 482.587 142.301 481.61 142.058 480.469 L 107.846 319.51 L 93.986 319.51 C 93.158 319.51 92.347 319.435 91.56 319.291 C 88.691 319.73 85.367 319.322 82.125 317.946 L 81.91 317.855 C 74.754 314.818 70.71 308.216 72.879 303.108 L 92.301 257.35 C 93.091 255.49 94.596 254.085 96.537 253.196 C 99.052 250.848 102.428 249.411 106.142 249.411 Z M 328.039 460.686 L 358.047 319.51 L 136.863 319.51 L 166.871 460.686 Z M 385.484 291.127 L 379.825 277.794 L 114.46 277.794 L 108.8 291.127 Z" style="stroke-miterlimit: 10;"/>
  <path d="M 310.44 246.78 L 310.44 119.584 C 310.44 85.011 290.047 57.596 255.524 57.596 L 242.007 57.596 C 207.44 57.596 189.857 85.011 189.857 119.584 L 189.857 246.78 C 142.649 272.172 357.641 272.172 310.44 246.78 Z M 280.859 253.474 C 280.859 257.678 219.439 257.678 219.439 253.467 L 218.469 115.057 C 221.565 95.592 228.34 83.329 248.636 83.329 L 248.712 82.944 C 271.216 82.944 280.859 97.05 280.859 119.584 L 280.859 253.474 Z" style="stroke: none; stroke-width: 1; stroke-dasharray: none; stroke-linecap: butt; stroke-linejoin: miter; stroke-miterlimit: 10; fill: rgb(0, 0, 0); fill-rule: nonzero; opacity: 1;" stroke-linecap="round"/>
  <path d="M 283.879 65.676 L 302.253 48.994 C 304.624 46.623 313.859 44.607 319.357 50.105 L 319.521 50.27 C 325.018 55.766 324.229 65.13 321.858 67.501 L 303.95 85.748 C 301.579 88.118 295.201 85.583 289.705 80.086 L 289.54 79.922 C 284.042 74.424 281.508 68.047 283.879 65.676 Z M 236.382 65.118 L 237.578 34.544 C 237.578 30.411 242.683 20.598 250.457 20.598 L 250.691 20.598 C 258.463 20.598 264.527 29.454 264.528 33.587 L 264.766 65.118 C 264.766 69.254 258.463 72.605 250.691 72.605 L 250.457 72.605 C 242.683 72.605 236.382 69.254 236.382 65.118 Z M 202.034 87.376 L 181.261 64.911 C 178.338 61.988 175.009 51.439 180.506 45.942 L 180.671 45.777 C 186.167 40.281 196.717 42.255 199.641 45.178 L 222.105 67.305 C 225.029 70.23 222.942 77.055 217.446 82.551 L 217.28 82.717 C 211.783 88.214 204.959 90.301 202.034 87.376 Z M 310.872 102.057 L 335.66 103.252 C 339.013 103.252 346.969 108.358 346.969 116.133 L 346.968 116.366 C 346.969 124.139 339.789 130.202 336.437 130.202 L 310.872 130.442 C 307.518 130.442 304.801 124.138 304.801 116.366 L 304.801 116.133 C 304.801 108.358 307.517 102.057 310.872 102.057 Z M 310.449 148.389 L 335.238 149.585 C 338.59 149.585 346.546 154.69 346.545 162.465 L 346.546 162.698 C 346.546 170.472 339.366 176.535 336.012 176.535 L 310.449 176.774 C 307.095 176.774 304.378 170.472 304.378 162.698 L 304.378 162.465 C 304.378 154.69 307.095 148.389 310.449 148.389 Z M 311.265 195.012 L 336.054 196.209 C 339.407 196.209 347.363 201.314 347.363 209.087 L 347.363 209.321 C 347.363 217.095 340.183 223.159 336.83 223.159 L 311.265 223.396 C 307.912 223.396 305.195 217.095 305.195 209.321 L 305.195 209.088 C 305.195 201.314 307.912 195.012 311.265 195.012 Z M 191.32 221.885 L 166.531 220.689 C 163.178 220.689 155.223 215.584 155.223 207.81 L 155.223 207.575 C 155.224 199.803 162.402 193.739 165.755 193.739 L 191.32 193.501 C 194.673 193.501 197.39 199.803 197.39 207.576 L 197.39 207.81 C 197.39 215.584 194.673 221.885 191.32 221.885 Z M 190.338 175.551 L 165.55 174.355 C 162.196 174.355 154.241 169.25 154.241 161.476 L 154.241 161.242 C 154.241 153.469 161.421 147.406 164.773 147.406 L 190.338 147.167 C 193.692 147.167 196.409 153.468 196.409 161.242 L 196.409 161.476 C 196.409 169.25 193.692 175.551 190.338 175.551 Z M 190.926 128.929 L 166.137 127.732 C 162.785 127.732 154.829 122.627 154.829 114.853 L 154.828 114.62 C 154.829 106.847 162.009 100.784 165.361 100.784 L 190.926 100.544 C 194.28 100.544 196.997 106.847 196.997 114.62 L 196.997 114.853 C 196.997 122.627 194.279 128.929 190.926 128.929 Z" style="stroke-miterlimit: 10;"/>
</svg>