<?xml version="1.0" encoding="utf-8"?>
<svg viewBox="0 0 500 500" xmlns="http://www.w3.org/2000/svg">
  <path d="M 491.11 448.689 L 431.634 387.499 L 430.726 386.584 L 431.5 385.554 C 462.011 344.963 480.692 295.21 480.694 239.686 C 480.341 173.615 453.246 113.689 409.7 70.288 C 366.152 26.886 306.152 0 239.996 0 C 173.84 0 113.84 26.886 70.38 70.288 C 26.921 113.691 0 173.612 0 239.682 C 0 305.753 26.887 365.884 70.38 409.425 C 113.805 453.038 173.84 480.065 239.996 480.065 C 295.595 480.065 345.407 461.408 386.054 430.256 L 387.09 429.463 L 388.015 430.386 L 447.45 490.838 C 453.093 497.147 460.853 500 468.587 500 C 476.328 500 484.052 497.196 490.388 491.58 C 496.715 485.598 499.963 477.853 499.995 470.128 C 500.139 462.401 497.09 454.663 491.102 448.682 M 60.526 239.684 C 60.526 190.129 80.585 145.321 113.047 112.9 C 145.511 80.48 190.378 60.447 239.996 60.447 C 289.614 60.447 334.447 80.514 366.944 112.9 C 399.371 145.355 419.464 190.129 419.464 239.682 C 419.464 289.235 399.371 334.01 366.944 366.464 C 334.447 398.848 289.614 418.916 239.996 418.916 C 190.378 418.916 145.545 398.848 113.047 366.464 C 96.826 350.244 83.699 330.941 74.612 309.498 C 70.08 298.772 66.559 287.513 64.167 275.838 C 62.975 270.001 62.064 264.058 61.451 258.028 C 61.145 255.012 60.914 251.973 60.759 248.917 C 60.681 247.386 60.623 245.851 60.585 244.313 C 60.546 242.769 60.526 239.682 60.526 239.682" style="stroke-miterlimit: 1;"/>
</svg>