<?xml version="1.0" encoding="utf-8"?>

<svg viewBox="0 0 500 500" xmlns="http://www.w3.org/2000/svg">
  <g style="stroke: none; stroke-width: 0; stroke-dasharray: none; stroke-linecap: butt; stroke-linejoin: miter; stroke-miterlimit: 10; fill: none; fill-rule: nonzero; opacity: 1;" transform="matrix(5.148061, 0, 0, 5.148061, 5.373648, 51.513062)">
    <g transform="matrix(0.245963, 0, 0, 0.245963, 99.200777, 0.042458)" style="">
      <g style="">
        <g style="" transform="matrix(1.054006, 0, 0, 1.054006, 25.290901, 6.155816)">
          <path fill="#000000" d="M -274.176 41.825 L -274.176 51.4 L -297.714 51.4 L -321.252 51.4 L -321.252 41.825 L -321.252 32.249 L -297.714 32.249 L -274.176 32.249 L -274.176 41.825 Z" style=""/>
          <path fill="#000000" d="M -274.396 117.289 L -274.396 126.864 L -297.934 126.864 L -321.472 126.864 L -321.472 117.289 L -321.472 107.713 L -297.934 107.713 L -274.396 107.713 L -274.396 117.289 Z" style=""/>
          <path fill="#000000" d="M -274.992 155.3 L -274.992 164.875 L -298.53 164.875 L -322.068 164.875 L -322.068 155.3 L -322.068 145.724 L -298.53 145.724 L -274.992 145.724 L -274.992 155.3 Z" style=""/>
          <path fill="#000000" d="M -274.343 80.3 L -274.343 89.875 L -297.557 89.875 L -320.77 89.875 L -320.77 80.3 L -320.77 70.724 L -297.557 70.724 L -274.343 70.724 L -274.343 80.3 Z" style=""/>
        </g>
      </g>
    </g>
    <path d="M 58.107 48.594 L 58.107 0.519 C 58.107 -4.259 53.152 -9.213 48.381 -9.213 L 46.513 -9.213 C 41.736 -9.213 36.781 -4.259 36.781 0.519 L 36.781 48.594 C 30.257 52.103 27.095 59.017 27.095 66.467 C 27.095 77.644 36.263 86.813 47.443 86.813 C 58.626 86.813 67.794 77.644 67.794 66.463 C 67.794 59.017 64.63 52.103 58.107 48.594 Z M 47.443 82.727 C 37.925 82.727 31.181 75.985 31.181 66.463 C 31.181 59.851 34.039 53.735 40.011 50.881 C 40.533 50.629 40.869 50.1 40.869 49.518 L 40.947 -0.372 C 41.375 -3.062 43.704 -5.126 46.509 -5.126 L 48.377 -5.126 C 51.487 -5.126 54.019 -2.595 54.019 0.519 L 54.019 49.519 C 54.019 50.1 54.353 50.629 54.877 50.881 C 60.847 53.735 63.706 59.851 63.706 66.467 C 63.706 75.985 56.965 82.727 47.443 82.727 Z" style="stroke: none; stroke-width: 1; stroke-dasharray: none; stroke-linecap: butt; stroke-linejoin: miter; stroke-miterlimit: 10; fill: rgb(0, 0, 0); fill-rule: nonzero; opacity: 1;" stroke-linecap="round"/>
  </g>
  <g transform="matrix(1, 0, 0, 1, -1, 0)" style="">
    <rect x="216.626" y="219.819" width="6.279" height="6.907" style="stroke-miterlimit: 10;"/>
    <rect x="236.743" y="219.816" width="6.279" height="6.907" style="stroke-miterlimit: 10;"/>
    <rect x="257.904" y="219.862" width="6.279" height="6.907" style="stroke-miterlimit: 10;"/>
    <rect x="279.05" y="219.861" width="6.279" height="6.907" style="stroke-miterlimit: 10;"/>
    <rect x="226.207" y="210.954" width="6.279" height="6.907" style="stroke-miterlimit: 10;"/>
    <rect x="247.369" y="211" width="6.279" height="6.907" style="stroke-miterlimit: 10;"/>
    <rect x="268.514" y="210.999" width="6.279" height="6.907" style="stroke-miterlimit: 10;"/>
    <rect x="216.623" y="236.998" width="6.279" height="6.907" style="stroke-miterlimit: 10;"/>
    <rect x="236.739" y="236.995" width="6.279" height="6.907" style="stroke-miterlimit: 10;"/>
    <rect x="257.9" y="237.041" width="6.279" height="6.907" style="stroke-miterlimit: 10;"/>
    <rect x="279.045" y="237.039" width="6.279" height="6.907" style="stroke-miterlimit: 10;"/>
    <rect x="226.204" y="228.134" width="6.279" height="6.907" style="stroke-miterlimit: 10;"/>
    <rect x="247.364" y="228.179" width="6.279" height="6.907" style="stroke-miterlimit: 10;"/>
    <rect x="268.511" y="228.178" width="6.279" height="6.907" style="stroke-miterlimit: 10;"/>
    <rect x="216.623" y="253.057" width="6.279" height="6.907" style="stroke-miterlimit: 10;"/>
    <rect x="236.739" y="253.054" width="6.279" height="6.907" style="stroke-miterlimit: 10;"/>
    <rect x="257.9" y="253.098" width="6.279" height="6.907" style="stroke-miterlimit: 10;"/>
    <rect x="279.045" y="253.097" width="6.279" height="6.907" style="stroke-miterlimit: 10;"/>
    <rect x="226.204" y="244.192" width="6.279" height="6.907" style="stroke-miterlimit: 10;"/>
    <rect x="247.364" y="244.238" width="6.279" height="6.907" style="stroke-miterlimit: 10;"/>
    <rect x="268.511" y="244.237" width="6.279" height="6.907" style="stroke-miterlimit: 10;"/>
    <rect x="216.272" y="268.767" width="6.279" height="6.907" style="stroke-miterlimit: 10;"/>
    <rect x="236.389" y="268.763" width="6.279" height="6.907" style="stroke-miterlimit: 10;"/>
    <rect x="257.55" y="268.808" width="6.279" height="6.907" style="stroke-miterlimit: 10;"/>
    <rect x="278.697" y="268.807" width="6.279" height="6.907" style="stroke-miterlimit: 10;"/>
    <rect x="225.854" y="259.901" width="6.279" height="6.907" style="stroke-miterlimit: 10;"/>
    <rect x="247.016" y="259.947" width="6.279" height="6.907" style="stroke-miterlimit: 10;"/>
    <rect x="268.161" y="259.946" width="6.279" height="6.907" style="stroke-miterlimit: 10;"/>
    <rect x="216.45" y="284.092" width="6.279" height="6.907" style="stroke-miterlimit: 10;"/>
    <rect x="236.567" y="284.089" width="6.279" height="6.907" style="stroke-miterlimit: 10;"/>
    <rect x="257.727" y="284.134" width="6.279" height="6.907" style="stroke-miterlimit: 10;"/>
    <rect x="278.874" y="284.132" width="6.279" height="6.907" style="stroke-miterlimit: 10;"/>
    <rect x="226.031" y="275.227" width="6.279" height="6.907" style="stroke-miterlimit: 10;"/>
    <rect x="247.193" y="275.273" width="6.279" height="6.907" style="stroke-miterlimit: 10;"/>
    <rect x="268.339" y="275.272" width="6.279" height="6.907" style="stroke-miterlimit: 10;"/>
    <rect x="216.446" y="301.271" width="6.279" height="6.907" style="stroke-miterlimit: 10;"/>
    <rect x="236.562" y="301.268" width="6.279" height="6.907" style="stroke-miterlimit: 10;"/>
    <rect x="257.724" y="301.314" width="6.279" height="6.907" style="stroke-miterlimit: 10;"/>
    <rect x="278.869" y="301.311" width="6.279" height="6.907" style="stroke-miterlimit: 10;"/>
    <rect x="226.027" y="292.406" width="6.279" height="6.907" style="stroke-miterlimit: 10;"/>
    <rect x="247.188" y="292.452" width="6.279" height="6.907" style="stroke-miterlimit: 10;"/>
    <rect x="268.335" y="292.451" width="6.279" height="6.907" style="stroke-miterlimit: 10;"/>
    <rect x="216.446" y="317.33" width="6.279" height="6.907" style="stroke-miterlimit: 10;"/>
    <rect x="236.562" y="317.325" width="6.279" height="6.907" style="stroke-miterlimit: 10;"/>
    <rect x="257.724" y="317.371" width="6.279" height="6.907" style="stroke-miterlimit: 10;"/>
    <rect x="278.869" y="317.369" width="6.279" height="6.907" style="stroke-miterlimit: 10;"/>
    <rect x="226.027" y="308.465" width="6.279" height="6.907" style="stroke-miterlimit: 10;"/>
    <rect x="247.188" y="308.511" width="6.279" height="6.907" style="stroke-miterlimit: 10;"/>
    <rect x="268.335" y="308.51" width="6.279" height="6.907" style="stroke-miterlimit: 10;"/>
    <rect x="216.097" y="333.039" width="6.279" height="6.907" style="stroke-miterlimit: 10;"/>
    <rect x="236.214" y="333.035" width="6.279" height="6.907" style="stroke-miterlimit: 10;"/>
    <rect x="257.375" y="333.081" width="6.279" height="6.907" style="stroke-miterlimit: 10;"/>
    <rect x="278.52" y="333.08" width="6.279" height="6.907" style="stroke-miterlimit: 10;"/>
    <rect x="225.678" y="324.175" width="6.279" height="6.907" style="stroke-miterlimit: 10;"/>
    <rect x="246.84" y="324.22" width="6.279" height="6.907" style="stroke-miterlimit: 10;"/>
    <rect x="267.985" y="324.218" width="6.279" height="6.907" style="stroke-miterlimit: 10;"/>
    <rect x="236.706" y="350.097" width="6.279" height="6.907" style="stroke-miterlimit: 10;"/>
    <rect x="256.822" y="350.093" width="6.279" height="6.907" style="stroke-miterlimit: 10;"/>
    <rect x="277.982" y="350.139" width="6.279" height="6.907" style="stroke-miterlimit: 10;"/>
    <rect x="299.13" y="350.138" width="6.279" height="6.907" style="stroke-miterlimit: 10;"/>
    <rect x="246.287" y="341.232" width="6.279" height="6.907" style="stroke-miterlimit: 10;"/>
    <rect x="267.449" y="341.277" width="6.279" height="6.907" style="stroke-miterlimit: 10;"/>
    <rect x="288.595" y="341.276" width="6.279" height="6.907" style="stroke-miterlimit: 10;"/>
    <rect x="236.701" y="367.275" width="6.279" height="6.907" style="stroke-miterlimit: 10;"/>
    <rect x="256.818" y="367.272" width="6.279" height="6.907" style="stroke-miterlimit: 10;"/>
    <rect x="277.979" y="367.318" width="6.279" height="6.907" style="stroke-miterlimit: 10;"/>
    <rect x="299.126" y="367.316" width="6.279" height="6.907" style="stroke-miterlimit: 10;"/>
    <rect x="246.284" y="358.41" width="6.279" height="6.907" style="stroke-miterlimit: 10;"/>
    <rect x="267.444" y="358.456" width="6.279" height="6.907" style="stroke-miterlimit: 10;"/>
    <rect x="288.59" y="358.455" width="6.279" height="6.907" style="stroke-miterlimit: 10;"/>
    <rect x="236.702" y="383.334" width="6.279" height="6.907" style="stroke-miterlimit: 10;"/>
    <rect x="256.818" y="383.331" width="6.279" height="6.907" style="stroke-miterlimit: 10;"/>
    <rect x="277.979" y="383.376" width="6.279" height="6.907" style="stroke-miterlimit: 10;"/>
    <rect x="299.126" y="383.374" width="6.279" height="6.907" style="stroke-miterlimit: 10;"/>
    <rect x="246.283" y="374.469" width="6.279" height="6.907" style="stroke-miterlimit: 10;"/>
    <rect x="267.444" y="374.515" width="6.279" height="6.907" style="stroke-miterlimit: 10;"/>
    <rect x="288.59" y="374.514" width="6.279" height="6.907" style="stroke-miterlimit: 10;"/>
    <rect x="236.352" y="399.045" width="6.279" height="6.907" style="stroke-miterlimit: 10;"/>
    <rect x="256.469" y="399.04" width="6.279" height="6.907" style="stroke-miterlimit: 10;"/>
    <rect x="277.63" y="399.086" width="6.279" height="6.907" style="stroke-miterlimit: 10;"/>
    <rect x="298.777" y="399.085" width="6.279" height="6.907" style="stroke-miterlimit: 10;"/>
    <rect x="245.933" y="390.18" width="6.279" height="6.907" style="stroke-miterlimit: 10;"/>
    <rect x="267.095" y="390.225" width="6.279" height="6.907" style="stroke-miterlimit: 10;"/>
    <rect x="288.241" y="390.223" width="6.279" height="6.907" style="stroke-miterlimit: 10;"/>
    <rect x="236.704" y="415.656" width="6.279" height="6.907" style="stroke-miterlimit: 10;"/>
    <rect x="256.821" y="415.65" width="6.279" height="6.907" style="stroke-miterlimit: 10;"/>
    <rect x="277.981" y="415.696" width="6.279" height="6.907" style="stroke-miterlimit: 10;"/>
    <rect x="299.128" y="415.695" width="6.279" height="6.907" style="stroke-miterlimit: 10;"/>
    <rect x="246.286" y="406.79" width="6.279" height="6.907" style="stroke-miterlimit: 10;"/>
    <rect x="267.448" y="406.835" width="6.279" height="6.907" style="stroke-miterlimit: 10;"/>
    <rect x="288.594" y="406.834" width="6.279" height="6.907" style="stroke-miterlimit: 10;"/>
    <rect x="236.7" y="432.833" width="6.279" height="6.907" style="stroke-miterlimit: 10;"/>
    <rect x="256.817" y="432.829" width="6.279" height="6.907" style="stroke-miterlimit: 10;"/>
    <rect x="277.978" y="432.875" width="6.279" height="6.907" style="stroke-miterlimit: 10;"/>
    <rect x="299.124" y="432.874" width="6.279" height="6.907" style="stroke-miterlimit: 10;"/>
    <rect x="246.282" y="423.968" width="6.279" height="6.907" style="stroke-miterlimit: 10;"/>
    <rect x="267.444" y="424.014" width="6.279" height="6.907" style="stroke-miterlimit: 10;"/>
    <rect x="288.59" y="424.013" width="6.279" height="6.907" style="stroke-miterlimit: 10;"/>
    <rect x="236.7" y="448.891" width="6.279" height="6.907" style="stroke-miterlimit: 10;"/>
    <rect x="256.817" y="448.888" width="6.279" height="6.907" style="stroke-miterlimit: 10;"/>
    <rect x="277.979" y="448.934" width="6.279" height="6.907" style="stroke-miterlimit: 10;"/>
    <rect x="299.125" y="448.933" width="6.279" height="6.907" style="stroke-miterlimit: 10;"/>
    <rect x="246.282" y="440.027" width="6.279" height="6.907" style="stroke-miterlimit: 10;"/>
    <rect x="267.444" y="440.073" width="6.279" height="6.907" style="stroke-miterlimit: 10;"/>
    <rect x="288.589" y="440.071" width="6.279" height="6.907" style="stroke-miterlimit: 10;"/>
    <rect x="236.352" y="464.602" width="6.279" height="6.907" style="stroke-miterlimit: 10;"/>
    <rect x="256.468" y="464.599" width="6.279" height="6.907" style="stroke-miterlimit: 10;"/>
    <rect x="277.63" y="464.644" width="6.279" height="6.907" style="stroke-miterlimit: 10;"/>
    <rect x="298.775" y="464.642" width="6.279" height="6.907" style="stroke-miterlimit: 10;"/>
    <rect x="245.933" y="455.738" width="6.279" height="6.907" style="stroke-miterlimit: 10;"/>
    <rect x="267.094" y="455.783" width="6.279" height="6.907" style="stroke-miterlimit: 10;"/>
    <rect x="288.242" y="455.781" width="6.279" height="6.907" style="stroke-miterlimit: 10;"/>
    <rect x="194.327" y="349.736" width="6.279" height="6.907" style="stroke-miterlimit: 10;"/>
    <rect x="215.488" y="349.78" width="6.279" height="6.907" style="stroke-miterlimit: 10;"/>
    <rect x="204.954" y="340.92" width="6.279" height="6.907" style="stroke-miterlimit: 10;"/>
    <rect x="226.099" y="340.919" width="6.279" height="6.907" style="stroke-miterlimit: 10;"/>
    <rect x="174.207" y="366.918" width="6.279" height="6.907" style="stroke-miterlimit: 10;"/>
    <rect x="194.323" y="366.914" width="6.279" height="6.907" style="stroke-miterlimit: 10;"/>
    <rect x="215.485" y="366.96" width="6.279" height="6.907" style="stroke-miterlimit: 10;"/>
    <rect x="183.788" y="358.053" width="6.279" height="6.907" style="stroke-miterlimit: 10;"/>
    <rect x="204.95" y="358.098" width="6.279" height="6.907" style="stroke-miterlimit: 10;"/>
    <rect x="226.096" y="358.097" width="6.279" height="6.907" style="stroke-miterlimit: 10;"/>
    <rect x="174.207" y="382.975" width="6.279" height="6.907" style="stroke-miterlimit: 10;"/>
    <rect x="194.323" y="382.971" width="6.279" height="6.907" style="stroke-miterlimit: 10;"/>
    <rect x="215.485" y="383.017" width="6.279" height="6.907" style="stroke-miterlimit: 10;"/>
    <rect x="183.789" y="374.111" width="6.279" height="6.907" style="stroke-miterlimit: 10;"/>
    <rect x="204.95" y="374.157" width="6.279" height="6.907" style="stroke-miterlimit: 10;"/>
    <rect x="226.096" y="374.155" width="6.279" height="6.907" style="stroke-miterlimit: 10;"/>
    <rect x="173.858" y="398.686" width="6.279" height="6.907" style="stroke-miterlimit: 10;"/>
    <rect x="193.975" y="398.682" width="6.279" height="6.907" style="stroke-miterlimit: 10;"/>
    <rect x="215.135" y="398.727" width="6.279" height="6.907" style="stroke-miterlimit: 10;"/>
    <rect x="183.439" y="389.821" width="6.279" height="6.907" style="stroke-miterlimit: 10;"/>
    <rect x="204.6" y="389.867" width="6.279" height="6.907" style="stroke-miterlimit: 10;"/>
    <rect x="225.745" y="389.866" width="6.279" height="6.907" style="stroke-miterlimit: 10;"/>
    <rect x="174.211" y="415.909" width="6.279" height="6.907" style="stroke-miterlimit: 10;"/>
    <rect x="194.328" y="415.905" width="6.279" height="6.907" style="stroke-miterlimit: 10;"/>
    <rect x="215.489" y="415.951" width="6.279" height="6.907" style="stroke-miterlimit: 10;"/>
    <rect x="183.792" y="407.045" width="6.279" height="6.907" style="stroke-miterlimit: 10;"/>
    <rect x="204.954" y="407.091" width="6.279" height="6.907" style="stroke-miterlimit: 10;"/>
    <rect x="226.099" y="407.088" width="6.279" height="6.907" style="stroke-miterlimit: 10;"/>
    <rect x="174.207" y="433.089" width="6.279" height="6.907" style="stroke-miterlimit: 10;"/>
    <rect x="194.323" y="433.084" width="6.279" height="6.907" style="stroke-miterlimit: 10;"/>
    <rect x="215.484" y="433.13" width="6.279" height="6.907" style="stroke-miterlimit: 10;"/>
    <rect x="183.788" y="424.223" width="6.279" height="6.907" style="stroke-miterlimit: 10;"/>
    <rect x="204.948" y="424.27" width="6.279" height="6.907" style="stroke-miterlimit: 10;"/>
    <rect x="226.096" y="424.268" width="6.279" height="6.907" style="stroke-miterlimit: 10;"/>
    <rect x="174.207" y="449.146" width="6.279" height="6.907" style="stroke-miterlimit: 10;"/>
    <rect x="194.323" y="449.143" width="6.279" height="6.907" style="stroke-miterlimit: 10;"/>
    <rect x="215.485" y="449.189" width="6.279" height="6.907" style="stroke-miterlimit: 10;"/>
    <rect x="183.788" y="440.281" width="6.279" height="6.907" style="stroke-miterlimit: 10;"/>
    <rect x="204.95" y="440.327" width="6.279" height="6.907" style="stroke-miterlimit: 10;"/>
    <rect x="226.096" y="440.326" width="6.279" height="6.907" style="stroke-miterlimit: 10;"/>
    <rect x="193.974" y="464.854" width="6.279" height="6.907" style="stroke-miterlimit: 10;"/>
    <rect x="215.135" y="464.899" width="6.279" height="6.907" style="stroke-miterlimit: 10;"/>
    <rect x="183.439" y="455.992" width="6.279" height="6.907" style="stroke-miterlimit: 10;"/>
    <rect x="204.6" y="456.037" width="6.279" height="6.907" style="stroke-miterlimit: 10;"/>
    <rect x="225.745" y="456.036" width="6.279" height="6.907" style="stroke-miterlimit: 10;"/>
    <rect x="319.133" y="366.865" width="6.279" height="6.907" style="stroke-miterlimit: 10;"/>
    <rect x="308.598" y="358.004" width="6.279" height="6.907" style="stroke-miterlimit: 10;"/>
    <rect x="334.785" y="383.576" width="6.279" height="6.907" style="stroke-miterlimit: 10;" transform="matrix(1, 0, 0, 1, -16, -1)"/>
    <rect x="308.249" y="373.715" width="6.279" height="6.907" style="stroke-miterlimit: 10;"/>
    <rect x="344.608" y="424.252" width="6.279" height="6.907" style="stroke-miterlimit: 10;" transform="matrix(1, 0, 0, 1, -25.472432, -25.065243)"/>
    <rect x="308.603" y="390.325" width="6.279" height="6.907" style="stroke-miterlimit: 10;"/>
    <rect x="319.133" y="416.366" width="6.279" height="6.907" style="stroke-miterlimit: 10;"/>
    <rect x="308.598" y="407.504" width="6.279" height="6.907" style="stroke-miterlimit: 10;"/>
    <rect x="319.101" y="433.05" width="6.279" height="6.907" style="stroke-miterlimit: 10;"/>
    <rect x="308.564" y="424.189" width="6.279" height="6.907" style="stroke-miterlimit: 10;"/>
    <rect x="319.099" y="449.133" width="6.279" height="6.907" style="stroke-miterlimit: 10;"/>
    <rect x="308.564" y="440.272" width="6.279" height="6.907" style="stroke-miterlimit: 10;"/>
    <rect x="308.746" y="456.276" width="6.279" height="6.907" style="stroke-miterlimit: 10;"/>
    <rect x="334.213" y="450.084" width="6.279" height="6.907" style="stroke-miterlimit: 10;" transform="matrix(1, 0, 0, 1, -16, -2)"/>
    <rect x="327.586" y="390.564" width="6.279" height="6.907" style="stroke-miterlimit: 10;"/>
    <rect x="328.045" y="407.566" width="6.279" height="6.907" style="stroke-miterlimit: 10;"/>
    <rect x="328.964" y="424.108" width="6.279" height="6.907" style="stroke-miterlimit: 10;"/>
    <rect x="257.28" y="480.629" width="6.279" height="6.907" style="stroke-miterlimit: 10;"/>
    <rect x="267.748" y="472.439" width="6.279" height="6.907" style="stroke-miterlimit: 10;" transform="matrix(1, 0, 0, 1, -1, 0)"/>
    <rect x="288.067" y="473.737" width="6.279" height="6.907" style="stroke-miterlimit: 10;"/>
    <rect x="225.85" y="472.899" width="6.279" height="6.907" style="stroke-miterlimit: 10;"/>
    <rect x="237.061" y="480.631" width="6.279" height="6.907" style="stroke-miterlimit: 10;"/>
    <rect x="257.065" y="481.301" width="6.279" height="6.907" style="stroke-miterlimit: 10;"/>
    <rect x="246.528" y="472.438" width="6.279" height="6.907" style="stroke-miterlimit: 10;"/>
    <rect x="204.253" y="470.602" width="6.279" height="6.907" style="stroke-miterlimit: 10;"/>
    <rect x="163.322" y="407.776" width="6.279" height="6.907" style="stroke-miterlimit: 10;"/>
    <rect x="165.16" y="390.775" width="6.279" height="6.907" style="stroke-miterlimit: 10;"/>
    <rect x="164.241" y="425.697" width="6.279" height="6.907" style="stroke-miterlimit: 10;"/>
    <rect x="216.498" y="202.601" width="6.279" height="6.907" style="stroke-miterlimit: 10;"/>
    <rect x="236.615" y="202.598" width="6.279" height="6.907" style="stroke-miterlimit: 10;"/>
    <rect x="257.776" y="202.644" width="6.279" height="6.907" style="stroke-miterlimit: 10;"/>
    <rect x="278.922" y="202.643" width="6.279" height="6.907" style="stroke-miterlimit: 10;"/>
    <rect x="226.079" y="193.736" width="6.279" height="6.907" style="stroke-miterlimit: 10;"/>
    <rect x="247.241" y="193.782" width="6.279" height="6.907" style="stroke-miterlimit: 10;"/>
    <rect x="268.386" y="193.781" width="6.279" height="6.907" style="stroke-miterlimit: 10;"/>
    <rect x="216.354" y="150.6" width="6.279" height="6.907" style="stroke-miterlimit: 10;"/>
    <rect x="236.471" y="150.597" width="6.279" height="6.907" style="stroke-miterlimit: 10;"/>
    <rect x="257.632" y="150.643" width="6.279" height="6.907" style="stroke-miterlimit: 10;"/>
    <rect x="278.778" y="150.642" width="6.279" height="6.907" style="stroke-miterlimit: 10;"/>
    <rect x="225.935" y="141.735" width="6.279" height="6.907" style="stroke-miterlimit: 10;"/>
    <rect x="247.097" y="141.781" width="6.279" height="6.907" style="stroke-miterlimit: 10;"/>
    <rect x="268.242" y="141.78" width="6.279" height="6.907" style="stroke-miterlimit: 10;"/>
    <rect x="216.351" y="167.779" width="6.279" height="6.907" style="stroke-miterlimit: 10;"/>
    <rect x="236.467" y="167.776" width="6.279" height="6.907" style="stroke-miterlimit: 10;"/>
    <rect x="257.628" y="167.822" width="6.279" height="6.907" style="stroke-miterlimit: 10;"/>
    <rect x="278.773" y="167.82" width="6.279" height="6.907" style="stroke-miterlimit: 10;"/>
    <rect x="225.932" y="158.915" width="6.279" height="6.907" style="stroke-miterlimit: 10;"/>
    <rect x="247.092" y="158.96" width="6.279" height="6.907" style="stroke-miterlimit: 10;"/>
    <rect x="268.239" y="158.959" width="6.279" height="6.907" style="stroke-miterlimit: 10;"/>
    <rect x="216.351" y="183.838" width="6.279" height="6.907" style="stroke-miterlimit: 10;"/>
    <rect x="236.467" y="183.835" width="6.279" height="6.907" style="stroke-miterlimit: 10;"/>
    <rect x="257.628" y="183.879" width="6.279" height="6.907" style="stroke-miterlimit: 10;"/>
    <rect x="278.773" y="183.878" width="6.279" height="6.907" style="stroke-miterlimit: 10;"/>
    <rect x="225.932" y="174.973" width="6.279" height="6.907" style="stroke-miterlimit: 10;"/>
    <rect x="247.092" y="175.019" width="6.279" height="6.907" style="stroke-miterlimit: 10;"/>
    <rect x="268.239" y="175.018" width="6.279" height="6.907" style="stroke-miterlimit: 10;"/>
    <rect x="290.586" y="309.142" width="6.279" height="6.907" style="stroke-miterlimit: 10;"/>
    <rect x="290.237" y="324.852" width="6.279" height="6.907" style="stroke-miterlimit: 10;"/>
    <rect x="311.382" y="324.851" width="6.279" height="6.907" style="stroke-miterlimit: 10;"/>
    <rect x="300.847" y="315.989" width="6.279" height="6.907" style="stroke-miterlimit: 10;"/>
    <rect x="299.504" y="334.015" width="6.279" height="6.907" style="stroke-miterlimit: 10;"/>
    <rect x="320.649" y="334.013" width="6.279" height="6.907" style="stroke-miterlimit: 10;"/>
    <rect x="320.3" y="349.724" width="6.279" height="6.907" style="stroke-miterlimit: 10;"/>
    <rect x="309.765" y="340.862" width="6.279" height="6.907" style="stroke-miterlimit: 10;"/>
    <rect x="330.946" y="341.993" width="6.279" height="6.907" style="stroke-miterlimit: 10;"/>
    <rect x="320.273" y="372.721" width="6.279" height="6.907" style="stroke-miterlimit: 10;" transform="matrix(1, 0, 0, 1, 10.324425, -15.0175)"/>
    <rect x="340.359" y="366.863" width="6.279" height="6.907" style="stroke-miterlimit: 10;"/>
    <rect x="340.01" y="382.574" width="6.279" height="6.907" style="stroke-miterlimit: 10;"/>
    <rect x="329.475" y="373.712" width="6.279" height="6.907" style="stroke-miterlimit: 10;"/>
    <rect x="336.108" y="398.778" width="6.279" height="6.907" style="stroke-miterlimit: 10;"/>
    <rect x="335.759" y="414.488" width="6.279" height="6.907" style="stroke-miterlimit: 10;"/>
    <rect x="206.61" y="308.932" width="6.279" height="6.907" style="stroke-miterlimit: 10;"/>
    <rect x="185.116" y="324.644" width="6.279" height="6.907" style="stroke-miterlimit: 10;"/>
    <rect x="206.261" y="324.643" width="6.279" height="6.907" style="stroke-miterlimit: 10;"/>
    <rect x="195.726" y="315.781" width="6.279" height="6.907" style="stroke-miterlimit: 10;"/>
    <rect x="173.264" y="334.276" width="6.279" height="6.907" style="stroke-miterlimit: 10;"/>
    <rect x="194.409" y="334.274" width="6.279" height="6.907" style="stroke-miterlimit: 10;"/>
    <rect x="172.915" y="349.986" width="6.279" height="6.907" style="stroke-miterlimit: 10;"/>
    <rect x="183.525" y="341.123" width="6.279" height="6.907" style="stroke-miterlimit: 10;"/>
    <rect x="165.782" y="359.616" width="6.279" height="6.907" style="stroke-miterlimit: 10;"/>
    <rect x="165.433" y="375.327" width="6.279" height="6.907" style="stroke-miterlimit: 10;"/>
    <rect x="154.898" y="366.465" width="6.279" height="6.907" style="stroke-miterlimit: 10;"/>
    <rect x="156.396" y="383.08" width="6.279" height="6.907" style="stroke-miterlimit: 10;"/>
    <rect x="156.047" y="398.791" width="6.279" height="6.907" style="stroke-miterlimit: 10;"/>
    <rect x="162.617" y="342.476" width="6.279" height="6.907" style="stroke-miterlimit: 10;"/>
  </g>
</svg>